<svg width="23" height="27" viewBox="0 0 23 27" fill="none" xmlns="http://www.w3.org/2000/svg">
<path d="M5.99951 17H10.4998M5.99951 12H16.4989M14.5302 0.75H7.96814C7.44603 0.75 6.9453 0.947544 6.57611 1.29917C6.20692 1.65081 5.99951 2.12772 5.99951 2.625C5.99951 3.12228 6.20692 3.59919 6.57611 3.95083C6.9453 4.30246 7.44603 4.5 7.96814 4.5H14.5302C15.0523 4.5 15.5531 4.30246 15.9223 3.95083C16.2914 3.59919 16.4989 3.12228 16.4989 2.625C16.4989 2.12772 16.2914 1.65081 15.9223 1.29917C15.5531 0.947544 15.0523 0.75 14.5302 0.75Z" stroke="black" stroke-width="1.5" stroke-linecap="round" stroke-linejoin="round"/>
<path d="M16.499 2.625C18.5385 2.68375 19.7538 2.9 20.5951 3.7025C21.75 4.8 21.75 6.56875 21.75 10.1025V18.25C21.75 21.785 21.75 23.5525 20.5951 24.6513C19.4428 25.75 17.5857 25.75 13.8755 25.75H8.62582C4.91168 25.75 3.05592 25.75 1.90362 24.6513C0.751312 23.5525 0.75 21.785 0.75 18.25V10.1037C0.75 6.56875 0.75 4.8 1.90362 3.7025C2.74488 2.9 3.96149 2.68375 5.99967 2.625" stroke="black" stroke-width="1.5" stroke-linecap="round" stroke-linejoin="round"/>
</svg>
