<svg width="25" height="25" viewBox="0 0 25 25" fill="none" xmlns="http://www.w3.org/2000/svg">
<path d="M12.5 0C19.4038 0 25 5.59597 25 12.4994C25 19.4028 19.4038 24.9987 12.5 24.9987C10.505 25.0015 8.53853 24.5248 6.76626 23.6088L1.98376 24.9425C1.71694 25.017 1.43511 25.0191 1.16716 24.9488C0.899217 24.8785 0.654779 24.7382 0.458897 24.5424C0.263015 24.3465 0.122731 24.1021 0.0524194 23.8341C-0.0178924 23.5662 -0.0157039 23.2844 0.0587604 23.0176L1.39376 18.2391C0.47545 16.4653 -0.002586 14.4967 1.05212e-05 12.4994C1.05212e-05 5.59597 5.59626 0 12.5 0ZM12.5 1.87491C9.68208 1.87491 6.97957 2.99427 4.987 4.98674C2.99443 6.97921 1.87501 9.68159 1.87501 12.4994C1.87501 14.3368 2.34126 16.1029 3.21626 17.6704L3.40376 18.0078L2.01376 22.9876L6.99751 21.5977L7.33501 21.7852C8.75299 22.5735 10.3327 23.0266 11.9529 23.1098C13.5732 23.1931 15.191 22.9041 16.6823 22.2652C18.1736 21.6263 19.4988 20.6544 20.5562 19.424C21.6136 18.1936 22.3752 16.7374 22.7826 15.1671C23.1899 13.5967 23.2323 11.954 22.9063 10.3647C22.5803 8.77548 21.8947 7.28199 20.9021 5.99878C19.9094 4.71557 18.636 3.67672 17.1796 2.96188C15.7232 2.24705 14.1224 1.87522 12.5 1.87491ZM8.43751 13.7493H14.06C14.2975 13.7494 14.5262 13.8396 14.6997 14.0018C14.8733 14.1639 14.9788 14.3859 14.995 14.6229C15.0112 14.8598 14.9369 15.0941 14.787 15.2784C14.6371 15.4626 14.4228 15.5831 14.1875 15.6155L14.06 15.6242H8.43751C8.19998 15.6241 7.97133 15.5339 7.79777 15.3718C7.62421 15.2096 7.51867 14.9876 7.50248 14.7507C7.48629 14.5137 7.56065 14.2794 7.71055 14.0952C7.86044 13.9109 8.07469 13.7904 8.31001 13.7581L8.43751 13.7493ZM8.43751 9.37453H16.5688C16.8062 9.37492 17.0346 9.46536 17.2079 9.62762C17.3813 9.78987 17.4866 10.0118 17.5026 10.2487C17.5186 10.4856 17.4442 10.7197 17.2943 10.9038C17.1444 11.0879 16.9302 11.2083 16.695 11.2407L16.5688 11.2494H8.43751C8.19998 11.2494 7.97133 11.1591 7.79777 10.997C7.62421 10.8348 7.51867 10.6128 7.50248 10.3759C7.48629 10.1389 7.56065 9.90464 7.71055 9.72039C7.86044 9.53614 8.07469 9.41565 8.31001 9.38328L8.43751 9.37453Z" fill="black"/>
</svg>
