<svg width="23" height="25" viewBox="0 0 23 25" fill="none" xmlns="http://www.w3.org/2000/svg">
<path d="M11.4996 3.39325e-07C13.0029 -0.0004732 14.4669 0.494696 15.6765 1.41283C16.8861 2.33096 17.7777 3.6237 18.2204 5.10131C18.6631 6.57892 18.6336 8.16358 18.1363 9.62269C17.6389 11.0818 16.6999 12.3385 15.4571 13.2084C17.6143 14.0222 19.4854 15.4814 20.8294 17.3981C22.1735 19.3149 22.929 21.6015 22.9987 23.9637C23.0053 24.0948 22.9863 24.2259 22.9428 24.3494C22.8994 24.4728 22.8325 24.5861 22.7459 24.6826C22.6594 24.7791 22.5549 24.8568 22.4388 24.9113C22.3226 24.9657 22.197 24.9957 22.0694 24.9996C21.9418 25.0034 21.8148 24.981 21.6957 24.9337C21.5766 24.8864 21.468 24.8151 21.3761 24.724C21.2841 24.6329 21.2108 24.5238 21.1605 24.4032C21.1101 24.2825 21.0836 24.1528 21.0826 24.0215C21.0065 21.4598 19.9636 19.0293 18.1748 17.245C16.3861 15.4606 13.9921 14.4627 11.5002 14.4627C9.00834 14.4627 6.61436 15.4606 4.82561 17.245C3.03687 19.0293 1.99393 21.4598 1.91781 24.0215C1.91018 24.283 1.80186 24.5307 1.61668 24.71C1.4315 24.8894 1.18462 24.9858 0.93036 24.9779C0.6761 24.9701 0.435284 24.8587 0.260889 24.6682C0.0864932 24.4778 -0.00719599 24.2238 0.000431808 23.9623C0.0704137 21.6004 0.826048 19.3141 2.17009 17.3976C3.51413 15.4811 5.38507 14.0221 7.54212 13.2084C6.29926 12.3385 5.36025 11.0818 4.86291 9.62269C4.36557 8.16358 4.33609 6.57892 4.77881 5.10131C5.22152 3.6237 6.11312 2.33096 7.32272 1.41283C8.53233 0.494696 9.99624 -0.0004732 11.4996 3.39325e-07ZM6.38658 7.23064C6.38658 8.62532 6.92527 9.96288 7.88415 10.9491C8.84302 11.9353 10.1435 12.4893 11.4996 12.4893C12.8556 12.4893 14.1562 11.9353 15.115 10.9491C16.0739 9.96288 16.6126 8.62532 16.6126 7.23064C16.6126 5.83596 16.0739 4.4984 15.115 3.51222C14.1562 2.52603 12.8556 1.97199 11.4996 1.97199C10.1435 1.97199 8.84302 2.52603 7.88415 3.51222C6.92527 4.4984 6.38658 5.83596 6.38658 7.23064Z" fill="black"/>
</svg>
