<svg width="28" height="27" viewBox="0 0 28 27" fill="none" xmlns="http://www.w3.org/2000/svg">
<path d="M14 0.75C14.5751 0.75 15.1323 0.946086 15.582 1.30469H15.583L26.3262 9.875C26.7232 10.1913 27.0112 10.6245 27.1523 11.1123C27.2934 11.5999 27.2811 12.1195 27.1162 12.5996C26.9513 13.0798 26.6417 13.4977 26.2295 13.7939C25.8685 14.0532 25.4444 14.2079 25.0039 14.2422L24.8145 14.25H24.749V17.9209C24.749 19.686 24.7499 21.0848 24.6045 22.1777C24.4563 23.2911 24.143 24.1986 23.4326 24.916C22.7216 25.6354 21.8205 25.9542 20.7148 26.1045C19.6315 26.2517 18.2457 26.25 16.5 26.25H11.5C9.75432 26.25 8.36845 26.2517 7.28516 26.1045C6.17947 25.9542 5.27742 25.6364 4.56641 24.917V24.916C3.85641 24.1987 3.54363 23.2909 3.39551 22.1777C3.25008 21.0848 3.25098 19.686 3.25098 17.9209V14.25H3.18555C2.67777 14.2504 2.18297 14.0902 1.77051 13.7939C1.35826 13.4977 1.04875 13.0798 0.883789 12.5996C0.718939 12.1195 0.706575 11.5999 0.847656 11.1123C0.98885 10.6245 1.27675 10.1913 1.67383 9.875L12.417 1.30469H12.418C12.8677 0.946086 13.4249 0.75 14 0.75Z" stroke="black" stroke-opacity="0.5" stroke-width="1.5" stroke-linejoin="round"/>
<mask id="path-2-outside-1_676_342" maskUnits="userSpaceOnUse" x="8.87549" y="14.6577" width="10" height="11" fill="black">
<rect fill="white" x="8.87549" y="14.6577" width="10" height="11"/>
<path d="M17.1247 25.5V19.8157C17.1247 18.6346 17.1247 18.0447 16.8735 17.6051C16.7089 17.3171 16.4723 17.0779 16.1873 16.9116C15.7524 16.6577 15.1687 16.6577 14.0001 16.6577C12.8315 16.6577 12.2478 16.6577 11.8129 16.9116C11.5279 17.0779 11.2912 17.3171 11.1267 17.6051C10.8755 18.0447 10.8755 18.6346 10.8755 19.8157V25.5"/>
</mask>
<path d="M16.8735 17.6051L15.571 18.3492L15.5711 18.3494L16.8735 17.6051ZM16.1873 16.9116L15.4311 18.207L15.4313 18.2072L16.1873 16.9116ZM11.8129 16.9116L12.5689 18.2072L12.5691 18.207L11.8129 16.9116ZM11.1267 17.6051L12.429 18.3494L12.4292 18.3492L11.1267 17.6051ZM17.1247 25.5H18.6247V19.8157H17.1247H15.6247V25.5H17.1247ZM17.1247 19.8157H18.6247C18.6247 19.2525 18.6261 18.731 18.5873 18.2983C18.5467 17.8456 18.4529 17.3458 18.1758 16.8608L16.8735 17.6051L15.5711 18.3494C15.5452 18.304 15.5771 18.319 15.5993 18.5664C15.6233 18.8338 15.6247 19.1978 15.6247 19.8157H17.1247ZM16.8735 17.6051L18.1759 16.8611C17.8815 16.3457 17.4569 15.9158 16.9433 15.6161L16.1873 16.9116L15.4313 18.2072C15.4876 18.24 15.5363 18.2885 15.571 18.3492L16.8735 17.6051ZM16.1873 16.9116L16.9435 15.6162C16.4585 15.333 15.9577 15.2371 15.5057 15.1957C15.075 15.1562 14.5565 15.1577 14.0001 15.1577V16.6577V18.1577C14.6123 18.1577 14.9699 18.1592 15.2319 18.1832C15.4726 18.2053 15.4812 18.2363 15.4311 18.207L16.1873 16.9116ZM14.0001 16.6577V15.1577C13.4437 15.1577 12.9252 15.1562 12.4945 15.1957C12.0425 15.2371 11.5417 15.333 11.0567 15.6162L11.8129 16.9116L12.5691 18.207C12.519 18.2363 12.5275 18.2053 12.7682 18.1832C13.0303 18.1592 13.3879 18.1577 14.0001 18.1577V16.6577ZM11.8129 16.9116L11.0569 15.6161C10.5432 15.9158 10.1187 16.3457 9.82425 16.8611L11.1267 17.6051L12.4292 18.3492C12.4638 18.2885 12.5126 18.24 12.5689 18.2072L11.8129 16.9116ZM11.1267 17.6051L9.82437 16.8608C9.54725 17.3458 9.4535 17.8456 9.41289 18.2983C9.37408 18.731 9.37549 19.2525 9.37549 19.8157H10.8755H12.3755C12.3755 19.1978 12.3769 18.8338 12.4009 18.5664C12.4231 18.319 12.4549 18.304 12.429 18.3494L11.1267 17.6051ZM10.8755 19.8157H9.37549V25.5H10.8755H12.3755V19.8157H10.8755Z" fill="black" fill-opacity="0.5" mask="url(#path-2-outside-1_676_342)"/>
</svg>
