<svg width="23" height="25" viewBox="0 0 23 25" fill="none" xmlns="http://www.w3.org/2000/svg">
<path d="M16.412 13.582C18.3016 14.4751 19.9127 15.8664 21.0727 17.6066C22.2327 19.3468 22.8978 21.3703 22.9966 23.4602C23.0098 23.6516 22.9846 23.8438 22.9226 24.0253C22.8606 24.2069 22.763 24.3742 22.6356 24.5175C22.5081 24.6608 22.3533 24.7771 22.1804 24.8597C22.0074 24.9423 21.8197 24.9895 21.6282 24.9984C21.4368 25.0074 21.2455 24.978 21.0656 24.9119C20.8857 24.8458 20.7208 24.7444 20.5805 24.6137C20.4402 24.4829 20.3275 24.3254 20.2489 24.1504C20.1702 23.9754 20.1273 23.7865 20.1226 23.5947C20.018 21.3749 19.0637 19.2807 17.4578 17.7468C15.852 16.2129 13.7179 15.3572 11.4985 15.3572C9.27918 15.3572 7.14507 16.2129 5.53921 17.7468C3.93334 19.2807 2.97907 21.3749 2.87448 23.5947C2.84863 23.9704 2.67689 24.321 2.39602 24.5716C2.11515 24.8221 1.74749 24.9525 1.37177 24.9349C0.996052 24.9173 0.642142 24.7531 0.385828 24.4775C0.129515 24.2019 -0.00882371 23.8367 0.000436666 23.4602C0.0991089 21.3705 0.763894 19.3471 1.92353 17.6069C3.08316 15.8667 4.69391 14.4754 6.5831 13.582C5.3725 12.5709 4.50233 11.2109 4.09096 9.68711C3.67959 8.16329 3.74699 6.54958 4.284 5.06548C4.821 3.58138 5.80153 2.29893 7.09223 1.39259C8.38292 0.486243 9.9211 0 11.4976 0C13.074 0 14.6122 0.486243 15.9029 1.39259C17.1936 2.29893 18.1741 3.58138 18.7111 5.06548C19.2481 6.54958 19.3155 8.16329 18.9042 9.68711C18.4928 11.2109 17.6226 12.5709 16.412 13.582ZM16.295 7.67847C16.295 6.40472 15.7896 5.18313 14.8901 4.28244C13.9906 3.38176 12.7706 2.87576 11.4985 2.87576C10.2264 2.87576 9.00642 3.38176 8.10691 4.28244C7.2074 5.18313 6.70206 6.40472 6.70206 7.67847C6.70206 8.95223 7.2074 10.1738 8.10691 11.0745C9.00642 11.9752 10.2264 12.4812 11.4985 12.4812C12.7706 12.4812 13.9906 11.9752 14.8901 11.0745C15.7896 10.1738 16.295 8.95223 16.295 7.67847Z" fill="black" fill-opacity="0.5"/>
</svg>
