<svg width="25" height="23" viewBox="0 0 25 23" fill="none" xmlns="http://www.w3.org/2000/svg">
<path fill-rule="evenodd" clip-rule="evenodd" d="M4.575 0.760781C10.7 -0.335618 14.2464 -0.166941 20.3964 0.756948C22.7357 1.10772 25 2.85582 25 5.7885V8.02538C25 8.5065 24.7321 8.93969 24.3214 9.12945C23.4178 9.54156 22.8018 10.4827 22.8018 11.5599C22.8018 12.6372 23.4178 13.5783 24.3196 13.9904C24.522 14.0811 24.6947 14.2343 24.8158 14.4305C24.9369 14.6268 25.001 14.8572 25 15.0926V17.3314C25 18.7076 24.5232 19.9094 23.6607 20.8007C22.8161 21.6767 21.6625 22.1904 20.3821 22.3667C14.2446 23.2082 10.7679 23.214 4.61785 22.3667C2.10178 22.0236 0 20.2353 0 17.3333V15.0945C0 14.6153 0.267857 14.1802 0.678571 13.9923C1.58393 13.5802 2.19821 12.6391 2.19821 11.5618C2.19821 10.4846 1.58393 9.54347 0.680357 9.12945C0.479399 9.03664 0.30801 8.88295 0.187171 8.6872C0.0663326 8.49145 0.00128806 8.26212 0 8.0273L0 5.79042C0 4.39117 0.5125 3.20851 1.37857 2.33829C2.225 1.48724 3.35714 0.977378 4.575 0.760781ZM20.0875 3.12801C14.0946 2.23095 10.7839 2.07761 4.94285 3.12417C4.03928 3.28518 3.35 3.63787 2.90536 4.0864C2.68571 4.30186 2.51188 4.56559 2.39571 4.85964C2.27954 5.15369 2.22375 5.47115 2.23214 5.79042V7.30851C2.9042 7.75955 3.45848 8.38648 3.84298 9.13045C4.22749 9.87443 4.4296 10.7111 4.43035 11.5618C4.43035 13.356 3.54821 14.922 2.23214 15.8152V17.3333C2.23214 18.6789 3.14286 19.7484 4.9 19.9919C10.8625 20.8122 14.1482 20.8065 20.1 19.9919C21.0178 19.8653 21.6857 19.5203 22.1125 19.0775C22.5232 18.6539 22.7678 18.0808 22.7678 17.3333V15.8133C22.0955 15.362 21.5411 14.7348 21.1566 13.9905C20.7721 13.2461 20.5701 12.4091 20.5696 11.558C20.5707 10.7076 20.7729 9.87131 21.1574 9.1277C21.5419 8.38408 22.096 7.75746 22.7678 7.30659V5.7885C22.7678 4.46975 21.7607 3.38102 20.0875 3.12801ZM9.03392 4.63651C8.68414 4.6226 8.33534 4.68454 8.00836 4.81862C7.68139 4.9527 7.38296 5.15618 7.13092 5.41688C6.87887 5.67758 6.67839 5.99016 6.54146 6.33593C6.40452 6.6817 6.33394 7.05355 6.33394 7.42926C6.33394 7.80498 6.40452 8.17683 6.54146 8.5226C6.67839 8.86837 6.87887 9.18094 7.13092 9.44165C7.38296 9.70235 7.68139 9.90583 8.00836 10.0399C8.33534 10.174 8.68414 10.2359 9.03392 10.222C9.38371 10.2359 9.73251 10.174 10.0595 10.0399C10.3865 9.90583 10.6849 9.70235 10.9369 9.44165C11.189 9.18094 11.3895 8.86837 11.5264 8.5226C11.6633 8.17683 11.7339 7.80498 11.7339 7.42926C11.7339 7.05355 11.6633 6.6817 11.5264 6.33593C11.3895 5.99016 11.189 5.67758 10.9369 5.41688C10.6849 5.15618 10.3865 4.9527 10.0595 4.81862C9.73251 4.68454 9.38371 4.6226 9.03392 4.63651ZM16.0393 12.1714C14.6018 12.1714 13.4304 13.4173 13.4304 14.9641C13.4304 15.7066 13.7051 16.4186 14.1942 16.9436C14.6833 17.4686 15.3467 17.7636 16.0384 17.7636C16.7301 17.7636 17.3934 17.4686 17.8825 16.9436C18.3716 16.4186 18.6464 15.7066 18.6464 14.9641C18.6464 13.4173 17.4768 12.1714 16.0393 12.1714ZM17.3839 7.63819C17.5655 7.39088 17.6491 7.07676 17.6166 6.7638C17.584 6.45084 17.438 6.16421 17.2101 5.96594C16.9822 5.76766 16.6907 5.67367 16.3988 5.70432C16.1068 5.73496 15.8378 5.88777 15.65 6.12969C12.9875 9.65656 11.2696 11.4737 7.775 14.5482C7.66 14.6473 7.56445 14.7699 7.49386 14.9089C7.42327 15.0479 7.37904 15.2005 7.36372 15.3579C7.34841 15.5154 7.36232 15.6745 7.40465 15.8262C7.44698 15.9778 7.51689 16.1189 7.61033 16.2414C7.70378 16.3639 7.81891 16.4652 7.94907 16.5397C8.07923 16.6141 8.22184 16.6601 8.36866 16.675C8.51548 16.6899 8.6636 16.6734 8.80445 16.6265C8.9453 16.5796 9.0761 16.5032 9.18928 16.4017C12.7875 13.2352 14.6161 11.305 17.3839 7.63819Z" fill="black" fill-opacity="0.5"/>
</svg>
