<svg width="23" height="25" viewBox="0 0 23 25" fill="none" xmlns="http://www.w3.org/2000/svg">
<path d="M20.4444 5.95238H17.8889C17.8889 2.61905 15.0778 0 11.5 0C7.92222 0 5.11111 2.61905 5.11111 5.95238H2.55556C1.15 5.95238 0 7.02381 0 8.33333V22.619C0 23.9286 1.15 25 2.55556 25H20.4444C21.85 25 23 23.9286 23 22.619V8.33333C23 7.02381 21.85 5.95238 20.4444 5.95238ZM11.5 2.38095C13.6722 2.38095 15.3333 3.92857 15.3333 5.95238H7.66667C7.66667 3.92857 9.32778 2.38095 11.5 2.38095ZM20.4444 22.619H2.55556V8.33333H20.4444V22.619ZM11.5 13.0952C9.32778 13.0952 7.66667 11.5476 7.66667 9.52381H5.11111C5.11111 12.8571 7.92222 15.4762 11.5 15.4762C15.0778 15.4762 17.8889 12.8571 17.8889 9.52381H15.3333C15.3333 11.5476 13.6722 13.0952 11.5 13.0952Z" fill="black" fill-opacity="0.5"/>
</svg>
