<svg width="21" height="25" viewBox="0 0 21 25" fill="none" xmlns="http://www.w3.org/2000/svg">
<path d="M19.0049 11.3892C18.66 10.9725 18.24 10.6114 17.8501 10.2503C16.8453 9.41694 15.7055 8.8197 14.7457 7.94467C12.5111 5.91684 12.0162 2.56952 13.4409 0C12.0162 0.319454 10.7714 1.0417 9.70661 1.83339C5.82232 4.72236 4.2926 9.81972 6.12226 14.1948C6.18225 14.3337 6.24224 14.4726 6.24224 14.6532C6.24224 14.9588 6.01728 15.2365 5.71734 15.3477C5.3724 15.4866 5.01247 15.4032 4.72752 15.181C4.6424 15.115 4.57122 15.0349 4.51756 14.9449C2.82287 12.9587 2.55292 10.1114 3.69271 7.83356C1.18817 9.7225 -0.176583 12.917 0.0183817 15.931C0.108365 16.6255 0.198349 17.3199 0.453302 18.0144C0.663264 18.8478 1.06819 19.6811 1.51811 20.4173C3.13781 22.8201 5.9423 24.5424 8.95674 24.8896C12.1662 25.2646 15.6005 24.7229 18.0601 22.6673C20.8046 20.3617 21.7644 16.6671 20.3547 13.5004L20.1597 13.1393C19.8448 12.5004 19.0049 11.3892 19.0049 11.3892ZM14.2658 20.1395C13.8458 20.4728 13.156 20.8339 12.6161 20.9728C10.9364 21.5284 9.25669 20.7506 8.26687 19.8339C10.0515 19.445 11.1163 18.2227 11.4313 16.9866C11.6862 15.8755 11.2063 14.9588 11.0114 13.8893C10.8314 12.8615 10.8614 11.9865 11.2663 11.0281C11.5513 11.5559 11.8512 12.0837 12.2111 12.5004C13.3659 13.8893 15.1806 14.5004 15.5705 16.3894C15.6305 16.5838 15.6605 16.7783 15.6605 16.9866C15.7055 18.1255 15.1656 19.3756 14.2658 20.1395Z" fill="black" fill-opacity="0.5"/>
</svg>
