<svg width="16" height="17" viewBox="0 0 16 17" fill="none" xmlns="http://www.w3.org/2000/svg">
<path fill-rule="evenodd" clip-rule="evenodd" d="M2.04292 1.51786C1.91343 1.51786 1.79149 1.56643 1.70348 1.649C1.66198 1.68829 1.62895 1.73513 1.60629 1.78682C1.58363 1.8385 1.5718 1.89401 1.57148 1.95014V15.0499C1.57148 15.1591 1.61799 15.2684 1.70474 15.3498C1.79489 15.4354 1.9165 15.483 2.04292 15.4821H13.3576C13.4871 15.4821 13.609 15.4336 13.697 15.3498C13.7384 15.3106 13.7713 15.264 13.794 15.2125C13.8166 15.1611 13.8285 15.1058 13.829 15.0499V6.03257C13.829 5.91114 13.7787 5.79336 13.6882 5.70714L9.40247 1.64779C9.31378 1.56484 9.19528 1.51828 9.07183 1.51786H2.04292ZM0.603448 0.565857C0.988145 0.201571 1.5061 0 2.04292 0H9.07183C9.60739 0 10.1216 0.202786 10.5025 0.564643L14.7882 4.624C15.1792 4.99436 15.4005 5.50314 15.4005 6.03257V15.0499C15.4005 15.572 15.1817 16.0699 14.797 16.4341C14.4123 16.7984 13.8944 17 13.3576 17H2.04292C1.5061 17 0.986888 16.7984 0.603448 16.4341C0.220007 16.0699 0 15.572 0 15.0499V1.95014C0 1.428 0.21875 0.930143 0.603448 0.565857ZM7.93156 7.75564C7.93156 7.33671 8.28358 6.99671 8.7173 6.99671H11.546C11.7544 6.99671 11.9542 7.07667 12.1016 7.219C12.2489 7.36133 12.3317 7.55436 12.3317 7.75564C12.3317 7.95692 12.2489 8.14996 12.1016 8.29229C11.9542 8.43461 11.7544 8.51457 11.546 8.51457H8.7173C8.50891 8.51457 8.30906 8.43461 8.1617 8.29229C8.01435 8.14996 7.93156 7.95692 7.93156 7.75564ZM8.7173 11.4252C8.50891 11.4252 8.30906 11.5052 8.1617 11.6475C8.01435 11.7898 7.93156 11.9829 7.93156 12.1841C7.93156 12.3854 8.01435 12.5785 8.1617 12.7208C8.30906 12.8631 8.50891 12.9431 8.7173 12.9431H11.546C11.7544 12.9431 11.9542 12.8631 12.1016 12.7208C12.2489 12.5785 12.3317 12.3854 12.3317 12.1841C12.3317 11.9829 12.2489 11.7898 12.1016 11.6475C11.9542 11.5052 11.7544 11.4252 11.546 11.4252H8.7173ZM6.90445 10.0506C7.0046 10.121 7.08942 10.2098 7.15405 10.3118C7.21868 10.4139 7.26186 10.5272 7.28112 10.6454C7.30039 10.7636 7.29535 10.8843 7.26632 11.0006C7.23728 11.1169 7.1848 11.2265 7.11188 11.3232L5.35685 13.651C5.27714 13.7569 5.17473 13.8449 5.0566 13.9091C4.93848 13.9732 4.80742 14.0121 4.67236 14.0229C4.53729 14.0337 4.4014 14.0163 4.27393 13.9718C4.14647 13.9274 4.03043 13.8569 3.93372 13.7651L2.8802 12.767C2.78694 12.6844 2.71184 12.5846 2.65937 12.4734C2.6069 12.3622 2.57814 12.2419 2.57479 12.1197C2.57145 11.9976 2.59359 11.876 2.6399 11.7623C2.68622 11.6486 2.75575 11.545 2.84437 11.4578C2.93298 11.3706 3.03886 11.3015 3.15571 11.2546C3.27255 11.2077 3.39797 11.1841 3.52448 11.185C3.651 11.1859 3.77603 11.2114 3.89212 11.26C4.00822 11.3086 4.11301 11.3792 4.20025 11.4677L4.47431 11.7264L5.58818 10.251C5.73533 10.056 5.9566 9.92534 6.20339 9.88777C6.45019 9.85021 6.70233 9.90879 6.90445 10.0506ZM7.11188 6.81943C7.18843 6.72303 7.24423 6.61282 7.27601 6.49527C7.30779 6.37773 7.3149 6.25523 7.29692 6.13499C7.27894 6.01475 7.23623 5.8992 7.17132 5.79515C7.1064 5.69109 7.02059 5.60063 6.91893 5.5291C6.81727 5.45756 6.70182 5.40639 6.57938 5.37861C6.45693 5.35082 6.32997 5.34697 6.20597 5.3673C6.08196 5.38762 5.96342 5.43171 5.85732 5.49695C5.75122 5.5622 5.65971 5.64729 5.58818 5.74721L4.47431 7.22257L4.2015 6.96393C4.11427 6.87542 4.00948 6.80478 3.89338 6.75621C3.77729 6.70763 3.65226 6.68212 3.52574 6.6812C3.39922 6.68027 3.27381 6.70395 3.15697 6.75082C3.04012 6.79769 2.93424 6.8668 2.84562 6.95402C2.75701 7.04124 2.68747 7.1448 2.64116 7.25852C2.59485 7.37224 2.5727 7.4938 2.57605 7.61596C2.57939 7.73812 2.60816 7.85838 2.66063 7.96958C2.7131 8.08078 2.7882 8.18064 2.88146 8.26321L3.93372 9.26136C4.03043 9.35307 4.14647 9.42357 4.27393 9.46805C4.4014 9.51254 4.53729 9.52995 4.67236 9.51912C4.80742 9.50829 4.93848 9.46946 5.0566 9.40528C5.17473 9.3411 5.27714 9.25308 5.35685 9.14721L7.11188 6.81943Z" fill="black" fill-opacity="0.5"/>
</svg>
