<svg width="15" height="16" viewBox="0 0 15 16" fill="none" xmlns="http://www.w3.org/2000/svg">
<path d="M10.2566 8.69246C11.4375 9.26406 12.4444 10.1545 13.1693 11.2682C13.8942 12.3819 14.3099 13.677 14.3717 15.0145C14.3799 15.137 14.3642 15.26 14.3254 15.3762C14.2867 15.4924 14.2257 15.5995 14.146 15.6912C14.0664 15.7829 13.9697 15.8574 13.8615 15.9102C13.7534 15.9631 13.6361 15.9933 13.5165 15.999C13.3969 16.0047 13.2773 15.9859 13.1649 15.9436C13.0524 15.9013 12.9494 15.8364 12.8617 15.7527C12.7741 15.6691 12.7036 15.5683 12.6545 15.4563C12.6053 15.3443 12.5785 15.2234 12.5755 15.1006C12.5102 13.6799 11.9138 12.3397 10.9102 11.358C9.90664 10.3763 8.57294 9.8286 7.18597 9.8286C5.799 9.8286 4.46529 10.3763 3.46171 11.358C2.45813 12.3397 1.86176 13.6799 1.7964 15.1006C1.78024 15.341 1.67291 15.5655 1.49739 15.7258C1.32186 15.8861 1.09209 15.9696 0.857285 15.9583C0.62248 15.9471 0.401305 15.842 0.241122 15.6656C0.0809401 15.4892 -0.00551436 15.2555 0.000272893 15.0145C0.0619378 13.6771 0.477393 12.3822 1.2021 11.2684C1.92681 10.1547 2.93345 9.26423 4.11409 8.69246C3.35753 8.04536 2.81372 7.17499 2.55663 6.19975C2.29955 5.22451 2.34167 4.19173 2.67727 3.24191C3.01287 2.29208 3.62565 1.47132 4.43227 0.891255C5.23888 0.311195 6.20017 0 7.18537 0C8.17057 0 9.13186 0.311195 9.93847 0.891255C10.7451 1.47132 11.3579 2.29208 11.6935 3.24191C12.0291 4.19173 12.0712 5.22451 11.8141 6.19975C11.557 7.17499 11.0132 8.04536 10.2566 8.69246ZM10.1835 4.91422C10.1835 4.09902 9.86769 3.3172 9.30554 2.74076C8.7434 2.16433 7.98096 1.84049 7.18597 1.84049C6.39097 1.84049 5.62854 2.16433 5.06639 2.74076C4.50424 3.3172 4.18843 4.09902 4.18843 4.91422C4.18843 5.72943 4.50424 6.51124 5.06639 7.08768C5.62854 7.66412 6.39097 7.98796 7.18597 7.98796C7.98096 7.98796 8.7434 7.66412 9.30554 7.08768C9.86769 6.51124 10.1835 5.72943 10.1835 4.91422Z" fill="black" fill-opacity="0.5"/>
</svg>
