<svg width="32" height="30" viewBox="0 0 32 30" fill="none" xmlns="http://www.w3.org/2000/svg">
<mask id="path-1-inside-1_264_262" fill="white">
<path d="M13.2943 2.24022L1.13438 24.1099C0.883845 24.5777 0.751328 25.108 0.75001 25.6481C0.748692 26.1881 0.878619 26.7192 1.12687 27.1884C1.37513 27.6576 1.73306 28.0486 2.16508 28.3225C2.59711 28.5965 3.08817 28.7439 3.58946 28.75H27.9093C28.4108 28.7444 28.9022 28.5974 29.3345 28.3236C29.7668 28.0497 30.125 27.6586 30.3734 27.1893C30.6217 26.7199 30.7516 26.1886 30.75 25.6483C30.7484 25.108 30.6155 24.5776 30.3644 24.1099L18.2062 2.24022C17.9504 1.78536 17.5901 1.40924 17.1601 1.14819C16.73 0.887148 16.2447 0.75 15.7511 0.75C15.2575 0.75 14.7722 0.887148 14.3421 1.14819C13.9121 1.40924 13.5518 1.78536 13.296 2.24022"/>
</mask>
<path d="M13.2943 2.24022L1.13438 24.1099C0.883845 24.5777 0.751328 25.108 0.75001 25.6481C0.748692 26.1881 0.878619 26.7192 1.12687 27.1884C1.37513 27.6576 1.73306 28.0486 2.16508 28.3225C2.59711 28.5965 3.08817 28.7439 3.58946 28.75H27.9093C28.4108 28.7444 28.9022 28.5974 29.3345 28.3236C29.7668 28.0497 30.125 27.6586 30.3734 27.1893C30.6217 26.7199 30.7516 26.1886 30.75 25.6483C30.7484 25.108 30.6155 24.5776 30.3644 24.1099L18.2062 2.24022C17.9504 1.78536 17.5901 1.40924 17.1601 1.14819C16.73 0.887148 16.2447 0.75 15.7511 0.75C15.2575 0.75 14.7722 0.887148 14.3421 1.14819C13.9121 1.40924 13.5518 1.78536 13.296 2.24022" fill="black" fill-opacity="0.16"/>
<path d="M1.13438 24.1099L0.260399 23.624L0.256574 23.6308L0.252857 23.6378L1.13438 24.1099ZM3.58946 28.75L3.57725 29.75H3.58946V28.75ZM27.9093 28.75V29.7501L27.9204 29.7499L27.9093 28.75ZM30.3644 24.1099L31.2454 23.6369L31.242 23.6304L31.2384 23.624L30.3644 24.1099ZM18.2062 2.24022L19.0802 1.75432L19.0779 1.75015L18.2062 2.24022ZM17.1601 1.14819L17.679 0.293352L17.1601 1.14819ZM15.7511 0.75V1.75V0.75ZM13.2943 2.24022L12.4203 1.75427L0.260399 23.624L1.13438 24.1099L2.00837 24.5959L14.1683 2.72617L13.2943 2.24022ZM1.13438 24.1099L0.252857 23.6378C-0.0764866 24.2527 -0.248277 24.9447 -0.249987 25.6456L0.75001 25.6481L1.75001 25.6505C1.75093 25.2713 1.84418 24.9027 2.01591 24.582L1.13438 24.1099ZM0.75001 25.6481L-0.249987 25.6456C-0.251698 26.3466 -0.0832893 27.0394 0.24297 27.656L1.12687 27.1884L2.01077 26.7207C1.84053 26.3989 1.74908 26.0297 1.75001 25.6505L0.75001 25.6481ZM1.12687 27.1884L0.24297 27.656C0.569392 28.273 1.04493 28.7963 1.62954 29.167L2.16508 28.3225L2.70063 27.478C2.42119 27.3008 2.18086 27.0421 2.01077 26.7207L1.12687 27.1884ZM2.16508 28.3225L1.62954 29.167C2.21484 29.5382 2.88652 29.7415 3.57725 29.7499L3.58946 28.75L3.60166 27.7501C3.28982 27.7463 2.97937 27.6548 2.70063 27.478L2.16508 28.3225ZM3.58946 28.75V29.75H27.9093V28.75V27.75H3.58946V28.75ZM27.9093 28.75L27.9204 29.7499C28.6115 29.7423 29.2838 29.5394 29.8696 29.1684L29.3345 28.3236L28.7994 27.4788C28.5206 27.6554 28.2101 27.7466 27.8982 27.7501L27.9093 28.75ZM29.3345 28.3236L29.8696 29.1684C30.4547 28.7977 30.9307 28.2742 31.2573 27.6569L30.3734 27.1893L29.4895 26.7216C29.3193 27.0431 29.0789 27.3017 28.7994 27.4788L29.3345 28.3236ZM30.3734 27.1893L31.2573 27.6569C31.5837 27.04 31.752 26.3467 31.75 25.6454L30.75 25.6483L29.75 25.6512C29.7511 26.0305 29.6597 26.3998 29.4895 26.7216L30.3734 27.1893ZM30.75 25.6483L31.75 25.6454C31.7479 24.9441 31.5756 24.2518 31.2454 23.6369L30.3644 24.1099L29.4833 24.5829C29.6554 24.9034 29.7489 25.272 29.75 25.6512L30.75 25.6483ZM30.3644 24.1099L31.2384 23.624L19.0802 1.75432L18.2062 2.24022L17.3322 2.72612L29.4904 24.5958L30.3644 24.1099ZM18.2062 2.24022L19.0779 1.75015C18.7411 1.1512 18.2616 0.647028 17.679 0.293352L17.1601 1.14819L16.6412 2.00304C16.9186 2.17145 17.1598 2.41953 17.3345 2.7303L18.2062 2.24022ZM17.1601 1.14819L17.679 0.293352C17.0956 -0.0607276 16.4314 -0.25 15.7511 -0.25V0.75V1.75C16.0581 1.75 16.3644 1.83502 16.6412 2.00304L17.1601 1.14819ZM15.7511 0.75V-0.25C15.0708 -0.25 14.4066 -0.060728 13.8232 0.293352L14.3421 1.14819L14.861 2.00304C15.1378 1.83502 15.4441 1.75 15.7511 1.75V0.75ZM14.3421 1.14819L13.8232 0.293352C13.2406 0.647028 12.7611 1.1512 12.4243 1.75015L13.296 2.24022L14.1677 2.7303C14.3424 2.41953 14.5836 2.17145 14.861 2.00304L14.3421 1.14819Z" fill="#E11D48" mask="url(#path-1-inside-1_264_262)"/>
<path d="M15.7494 22.2539H15.7632M15.7494 11.1176V16.6858M13.2943 2.24022L1.13438 24.1099C0.883845 24.5777 0.751328 25.108 0.75001 25.648C0.748692 26.1881 0.878619 26.7192 1.12687 27.1884C1.37513 27.6576 1.73306 28.0486 2.16508 28.3225C2.59711 28.5965 3.08817 28.7439 3.58946 28.75H27.9093C28.4108 28.7444 28.9022 28.5974 29.3345 28.3236C29.7668 28.0497 30.125 27.6586 30.3734 27.1893C30.6217 26.7199 30.7516 26.1886 30.75 25.6483C30.7484 25.108 30.6155 24.5776 30.3644 24.1099L18.2062 2.24022C17.9504 1.78536 17.5901 1.40924 17.1601 1.14819C16.73 0.887148 16.2447 0.75 15.7511 0.75C15.2575 0.75 14.7722 0.887148 14.3421 1.14819C13.9121 1.40924 13.5518 1.78536 13.296 2.24022" stroke="#E11D48" stroke-width="1.5" stroke-miterlimit="10" stroke-linecap="round" stroke-linejoin="round"/>
</svg>
