<svg width="26" height="27" viewBox="0 0 26 27" fill="none" xmlns="http://www.w3.org/2000/svg">
<path d="M0.75 13.2368V16.5395C0.75 20.8816 0.75 23.0526 2.11667 24.4013C3.48333 25.75 5.68333 25.75 10.0833 25.75H15.4167C19.8167 25.75 22.0167 25.75 23.3833 24.4013C24.75 23.0526 24.75 20.8816 24.75 16.5395V13.2368C24.75 11.0237 24.75 9.91842 24.2753 8.96053C23.8007 8.00263 22.9153 7.32368 21.1473 5.96579L18.4807 3.91974C15.7273 1.80658 14.35 0.75 12.75 0.75C11.15 0.75 9.77267 1.80658 7.01933 3.91974L4.35267 5.96579C2.58333 7.32368 1.69933 8.00263 1.22467 8.96053C0.75 9.91842 0.75 11.0237 0.75 13.2368Z" stroke="black" stroke-width="1.5" stroke-linecap="round" stroke-linejoin="round"/>
<path d="M16.75 25.7499V19.171C16.75 17.3105 16.75 16.3802 16.1633 15.8026C15.578 15.2236 14.6353 15.2236 12.75 15.2236C10.8647 15.2236 9.922 15.2236 9.33667 15.8026C8.75 16.3789 8.75 17.3092 8.75 19.171V25.7499" stroke="black" stroke-width="1.5" stroke-linecap="round" stroke-linejoin="round"/>
</svg>
