<svg width="25" height="25" viewBox="0 0 25 25" fill="none" xmlns="http://www.w3.org/2000/svg">
<path d="M10 18.6023V11.0483L1.66667 7.02614V18.087L8.75 21.5184L8.34635 23.1146L0 19.0925V5.21619L10.8333 0L21.6667 5.21619V8.60985C21.059 8.70203 20.5035 8.89056 20 9.17547V7.02614L11.6667 11.0483V16.9935L10 18.6023ZM8.15104 3.07944L15.7552 7.27753L18.9714 5.71895L10.8333 1.78482L8.15104 3.07944ZM10.8333 9.65309L13.9583 8.1448L6.35417 3.94671L2.69531 5.71895L10.8333 9.65309ZM22.3958 10.5455C22.7604 10.5455 23.099 10.6083 23.4115 10.734C23.724 10.8597 24.0017 11.0315 24.2448 11.2494C24.4878 11.4672 24.6701 11.7312 24.7917 12.0412C24.9132 12.3513 24.9826 12.6823 25 13.0342C25 13.361 24.9349 13.6794 24.8047 13.9894C24.6745 14.2995 24.4878 14.5718 24.2448 14.8064L14.9089 23.8185L10 25L11.224 20.2614L20.5599 11.2619C20.8116 11.0189 21.0937 10.8388 21.4062 10.7215C21.7187 10.6042 22.0486 10.5455 22.3958 10.5455ZM23.0599 13.6752C23.2422 13.4992 23.3333 13.2856 23.3333 13.0342C23.3333 12.7744 23.2465 12.5649 23.0729 12.4057C22.8993 12.2465 22.6736 12.1627 22.3958 12.1543C22.2743 12.1543 22.1571 12.1711 22.0443 12.2046C21.9314 12.2381 21.8316 12.301 21.7448 12.3932L12.7344 21.091L12.2917 22.7878L14.0495 22.3605L23.0599 13.6752Z" fill="black"/>
</svg>
